<?xml version="1.0" encoding="UTF-8"?>
<!DOCTYPE svg PUBLIC "-//W3C//DTD SVG 1.1//EN" "http://www.w3.org/Graphics/SVG/1.1/DTD/svg11.dtd">
<svg xmlns="http://www.w3.org/2000/svg" version="1.1" width="28" height="28" viewBox="0 0 72 64" style="shape-rendering:geometricPrecision; text-rendering:geometricPrecision; image-rendering:optimizeQuality; fill-rule:evenodd; clip-rule:evenodd" xmlns:xlink="http://www.w3.org/1999/xlink">
<g><path style="opacity:0.01" fill="#fe8757" d="M 22.5,-0.5 C 22.8333,-0.5 23.1667,-0.5 23.5,-0.5C 23.1667,8.83333 22.8333,8.83333 22.5,-0.5 Z"/></g>
<g><path style="opacity:0.986" fill="#fe8858" d="M 24.5,-0.5 C 31.8333,-0.5 39.1667,-0.5 46.5,-0.5C 46.3442,3.76426 47.0109,7.76426 48.5,11.5C 48.2322,13.099 48.5655,14.4324 49.5,15.5C 49.2627,16.791 49.596,17.791 50.5,18.5C 54.0776,29.4154 60.4109,38.4154 69.5,45.5C 69.8333,46.5 70.5,47.1667 71.5,47.5C 71.5,48.5 71.5,49.5 71.5,50.5C 70.6618,50.8417 70.3284,51.5084 70.5,52.5C 69.8333,52.5 69.5,52.8333 69.5,53.5C 68.6618,53.8417 68.3284,54.5084 68.5,55.5C 67.8333,55.5 67.5,55.8333 67.5,56.5C 66.6618,56.8417 66.3284,57.5084 66.5,58.5C 65.8333,58.5 65.5,58.8333 65.5,59.5C 64.0937,59.9731 63.427,60.9731 63.5,62.5C 62.8333,62.5 62.5,62.8333 62.5,63.5C 61.6618,63.8417 61.3284,64.5084 61.5,65.5C 60.1667,65.5 58.8333,65.5 57.5,65.5C 56.8333,64.1667 55.8333,63.1667 54.5,62.5C 54.0269,61.0937 53.0269,60.427 51.5,60.5C 48.8046,57.4744 46.1379,54.4744 43.5,51.5C 42.396,49.6115 41.0627,47.9448 39.5,46.5C 39.0679,45.2905 38.4013,44.2905 37.5,43.5C 37.5,42.8333 37.1667,42.5 36.5,42.5C 35.8333,39.8333 35.1667,39.8333 34.5,42.5C 33.0937,42.9731 32.427,43.9731 32.5,45.5C 31.8333,45.5 31.5,45.8333 31.5,46.5C 30.6618,46.8417 30.3284,47.5084 30.5,48.5C 29.8333,48.5 29.5,48.8333 29.5,49.5C 28.8333,49.5 28.5,49.8333 28.5,50.5C 27.0937,50.9731 26.427,51.9731 26.5,53.5C 25.8333,53.5 25.5,53.8333 25.5,54.5C 24.8333,54.5 24.5,54.8333 24.5,55.5C 23.8333,55.5 23.5,55.8333 23.5,56.5C 22.8333,56.5 22.5,56.8333 22.5,57.5C 21.8333,57.5 21.5,57.8333 21.5,58.5C 20.8333,58.5 20.5,58.8333 20.5,59.5C 19.8333,59.5 19.5,59.8333 19.5,60.5C 18.8333,60.5 18.5,60.8333 18.5,61.5C 16.9731,61.427 15.9731,62.0937 15.5,63.5C 14.8333,63.5 14.5,63.8333 14.5,64.5C 13.8333,64.5 13.5,64.8333 13.5,65.5C 11.4862,65.6085 9.81953,64.9418 8.5,63.5C 8.06795,62.2905 7.40128,61.2905 6.5,60.5C 5.18906,57.8646 3.52239,55.5313 1.5,53.5C 1.06795,52.2905 0.40128,51.2905 -0.5,50.5C -0.5,49.5 -0.5,48.5 -0.5,47.5C 5.94102,42.3977 11.2744,36.3977 15.5,29.5C 16.6737,28.4863 17.3404,27.153 17.5,25.5C 18.3382,25.1583 18.6716,24.4916 18.5,23.5C 21,20.3401 22.3333,16.6734 22.5,12.5C 24.0538,8.43335 24.7204,4.10001 24.5,-0.5 Z M 36.5,42.5 C 35.8333,42.5 35.1667,42.5 34.5,42.5C 35.1667,39.8333 35.8333,39.8333 36.5,42.5 Z M 51.5,60.5 C 53.0269,60.427 54.0269,61.0937 54.5,62.5C 52.9731,62.573 51.9731,61.9063 51.5,60.5 Z M 18.5,61.5 C 18.0269,62.9063 17.0269,63.573 15.5,63.5C 15.9731,62.0937 16.9731,61.427 18.5,61.5 Z"/></g>
<g><path style="opacity:0.01" fill="#fe8757" d="M 47.5,-0.5 C 47.8333,-0.5 48.1667,-0.5 48.5,-0.5C 48.1667,7.5 47.8333,7.5 47.5,-0.5 Z"/></g>
<g><path style="opacity:0.009" fill="#ff8757" d="M 48.5,11.5 C 48.3433,10.1266 48.51,8.79323 49,7.5C 49.765,9.06574 49.5983,10.3991 48.5,11.5 Z"/></g>
<g><path style="opacity:0.009" fill="#ff8757" d="M 22.5,12.5 C 21.4017,11.3991 21.235,10.0657 22,8.5C 22.49,9.79323 22.6567,11.1266 22.5,12.5 Z"/></g>
<g><path style="opacity:0.008" fill="#ff8757" d="M 49.5,15.5 C 49.3505,14.448 49.5172,13.448 50,12.5C 50.7401,13.7494 50.5735,14.7494 49.5,15.5 Z"/></g>
<g><path style="opacity:0.012" fill="#ff8757" d="M 50.5,18.5 C 50.369,17.7611 50.5357,17.0944 51,16.5C 51.6917,17.4368 51.525,18.1034 50.5,18.5 Z"/></g>
<g><path style="opacity:0.012" fill="#ff8757" d="M 18.5,23.5 C 17.475,23.1034 17.3083,22.4368 18,21.5C 18.4643,22.0944 18.631,22.7611 18.5,23.5 Z"/></g>
<g><path style="opacity:0.012" fill="#fe8757" d="M 17.5,25.5 C 16.8333,24.1667 16.8333,24.1667 17.5,25.5 Z"/></g>
<g><path style="opacity:0.012" fill="#ff8757" d="M 15.5,29.5 C 15.1667,29.5 14.8333,29.5 14.5,29.5C 14.8333,26.8333 15.1667,26.8333 15.5,29.5 Z"/></g>
<g><path style="opacity:0.012" fill="#fe8857" d="M 14.5,29.5 C 13.8333,30.1667 13.8333,30.1667 14.5,29.5 Z"/></g>
<g><path style="opacity:0.008" fill="#fe8756" d="M 33.5,44.5 C 34.8333,45.1667 34.8333,45.1667 33.5,44.5 Z"/></g>
<g><path style="opacity:0.004" fill="#ff8757" d="M 37.5,43.5 C 37.631,44.2389 37.4643,44.9056 37,45.5C 36.3083,44.5632 36.475,43.8966 37.5,43.5 Z"/></g>
<g><path style="opacity:0.012" fill="#fe8856" d="M 69.5,44.5 C 70.8333,45.1667 70.8333,45.1667 69.5,44.5 Z"/></g>
<g><path style="opacity:0.016" fill="#fe8756" d="M 32.5,45.5 C 32.8333,45.5 33.1667,45.5 33.5,45.5C 33.3147,46.1701 32.9813,46.1701 32.5,45.5 Z"/></g>
<g><path style="opacity:0.016" fill="#fd8856" d="M 39.5,46.5 C 38.8333,47.1667 38.8333,47.1667 39.5,46.5 Z"/></g>
<g><path style="opacity:0.004" fill="#ff8757" d="M 31.5,46.5 C 31.8333,46.5 32.1667,46.5 32.5,46.5C 32.6716,47.4916 32.3382,48.1583 31.5,48.5C 31.5,47.8333 31.5,47.1667 31.5,46.5 Z"/></g>
<g><path style="opacity:0.012" fill="#fe8756" d="M 30.5,48.5 C 30.8333,48.5 31.1667,48.5 31.5,48.5C 31.3147,49.1701 30.9813,49.1701 30.5,48.5 Z"/></g>
<g><path style="opacity:0.008" fill="#fe8756" d="M 39.5,48.5 C 40.8333,49.1667 40.8333,49.1667 39.5,48.5 Z"/></g>
<g><path style="opacity:0.016" fill="#fe8756" d="M 29.5,49.5 C 29.8333,49.5 30.1667,49.5 30.5,49.5C 30.3147,50.1701 29.9813,50.1701 29.5,49.5 Z"/></g>
<g><path style="opacity:0.012" fill="#fe8857" d="M 28.5,50.5 C 28.8333,50.5 29.1667,50.5 29.5,50.5C 29.3147,51.1701 28.9813,51.1701 28.5,50.5 Z"/></g>
<g><path style="opacity:0.012" fill="#fe8757" d="M 43.5,51.5 C 42.8333,52.1667 42.8333,52.1667 43.5,51.5 Z"/></g>
<g><path style="opacity:0.004" fill="#fe8756" d="M 27.5,52.5 C 28.8333,53.1667 28.8333,53.1667 27.5,52.5 Z"/></g>
<g><path style="opacity:0.016" fill="#fe8756" d="M 70.5,52.5 C 70.8333,52.5 71.1667,52.5 71.5,52.5C 71.5,52.8333 71.5,53.1667 71.5,53.5C 71.1667,53.1667 70.8333,52.8333 70.5,52.5 Z"/></g>
<g><path style="opacity:0.012" fill="#fe8856" d="M 1.5,53.5 C 0.833333,54.1667 0.833333,54.1667 1.5,53.5 Z"/></g>
<g><path style="opacity:0.008" fill="#fe8856" d="M 26.5,53.5 C 26.8333,53.5 27.1667,53.5 27.5,53.5C 27.3147,54.1701 26.9813,54.1701 26.5,53.5 Z"/></g>
<g><path style="opacity:0.004" fill="#fe8856" d="M 44.5,54.5 C 43.8333,53.1667 43.8333,53.1667 44.5,54.5 Z"/></g>
<g><path style="opacity:0.012" fill="#fe8856" d="M 25.5,54.5 C 25.8333,54.5 26.1667,54.5 26.5,54.5C 26.3147,55.1701 25.9813,55.1701 25.5,54.5 Z"/></g>
<g><path style="opacity:0.008" fill="#fe8756" d="M 44.5,54.5 C 45.8333,55.1667 45.8333,55.1667 44.5,54.5 Z"/></g>
<g><path style="opacity:0.008" fill="#ff8757" d="M 69.5,53.5 C 69.8333,53.5 70.1667,53.5 70.5,53.5C 70.6716,54.4916 70.3382,55.1583 69.5,55.5C 69.5,54.8333 69.5,54.1667 69.5,53.5 Z"/></g>
<g><path style="opacity:0.012" fill="#fe8756" d="M 1.5,55.5 C 2.83333,56.1667 2.83333,56.1667 1.5,55.5 Z"/></g>
<g><path style="opacity:0.016" fill="#fd8856" d="M 24.5,55.5 C 24.8333,55.5 25.1667,55.5 25.5,55.5C 25.3147,56.1701 24.9813,56.1701 24.5,55.5 Z"/></g>
<g><path style="opacity:0.016" fill="#fe8756" d="M 68.5,55.5 C 68.8333,55.5 69.1667,55.5 69.5,55.5C 69.3147,56.1701 68.9813,56.1701 68.5,55.5 Z"/></g>
<g><path style="opacity:0.016" fill="#fe8756" d="M 23.5,56.5 C 23.8333,56.5 24.1667,56.5 24.5,56.5C 24.3147,57.1701 23.9813,57.1701 23.5,56.5 Z"/></g>
<g><path style="opacity:0.016" fill="#fd8756" d="M 22.5,57.5 C 22.8333,57.5 23.1667,57.5 23.5,57.5C 23.3147,58.1701 22.9813,58.1701 22.5,57.5 Z"/></g>
<g><path style="opacity:0.004" fill="#ff8757" d="M 67.5,56.5 C 67.8333,56.5 68.1667,56.5 68.5,56.5C 68.6716,57.4916 68.3382,58.1583 67.5,58.5C 67.5,57.8333 67.5,57.1667 67.5,56.5 Z"/></g>
<g><path style="opacity:0.016" fill="#fe8756" d="M 21.5,58.5 C 21.8333,58.5 22.1667,58.5 22.5,58.5C 22.3147,59.1701 21.9813,59.1701 21.5,58.5 Z"/></g>
<g><path style="opacity:0.012" fill="#fe8756" d="M 66.5,58.5 C 66.8333,58.5 67.1667,58.5 67.5,58.5C 67.3147,59.1701 66.9813,59.1701 66.5,58.5 Z"/></g>
<g><path style="opacity:0.016" fill="#fe8756" d="M 20.5,59.5 C 20.8333,59.5 21.1667,59.5 21.5,59.5C 21.3147,60.1701 20.9813,60.1701 20.5,59.5 Z"/></g>
<g><path style="opacity:0.016" fill="#fe8857" d="M 65.5,59.5 C 65.8333,59.5 66.1667,59.5 66.5,59.5C 66.3147,60.1701 65.9813,60.1701 65.5,59.5 Z"/></g>
<g><path style="opacity:0.016" fill="#fe8856" d="M 19.5,60.5 C 19.8333,60.5 20.1667,60.5 20.5,60.5C 20.3147,61.1701 19.9813,61.1701 19.5,60.5 Z"/></g>
<g><path style="opacity:0.004" fill="#ff8757" d="M 6.5,60.5 C 6.63101,61.2389 6.46434,61.9056 6,62.5C 5.30831,61.5632 5.47498,60.8966 6.5,60.5 Z"/></g>
<g><path style="opacity:0.008" fill="#fd8756" d="M 64.5,61.5 C 65.8333,62.1667 65.8333,62.1667 64.5,61.5 Z"/></g>
<g><path style="opacity:0.016" fill="#fe8757" d="M 63.5,62.5 C 63.8333,62.5 64.1667,62.5 64.5,62.5C 64.3147,63.1701 63.9813,63.1701 63.5,62.5 Z"/></g>
<g><path style="opacity:0.016" fill="#fe8856" d="M 8.5,63.5 C 7.83333,64.1667 7.83333,64.1667 8.5,63.5 Z"/></g>
<g><path style="opacity:0.012" fill="#fe8857" d="M 14.5,64.5 C 15.8333,65.1667 15.8333,65.1667 14.5,64.5 Z"/></g>
<g><path style="opacity:0.004" fill="#ff8757" d="M 62.5,63.5 C 62.8333,63.5 63.1667,63.5 63.5,63.5C 63.6716,64.4916 63.3382,65.1583 62.5,65.5C 62.5,64.8333 62.5,64.1667 62.5,63.5 Z"/></g>
<g><path style="opacity:0.004" fill="#fe8757" d="M 8.5,65.5 C 9.83333,66.1667 9.83333,66.1667 8.5,65.5 Z"/></g>
<g><path style="opacity:0.012" fill="#fe8756" d="M 13.5,65.5 C 13.8333,65.5 14.1667,65.5 14.5,65.5C 14.3147,66.1701 13.9813,66.1701 13.5,65.5 Z"/></g>
<g><path style="opacity:0.012" fill="#fe8757" d="M 57.5,65.5 C 57.5,65.8333 57.5,66.1667 57.5,66.5C 56.8299,66.0187 56.8299,65.6853 57.5,65.5 Z"/></g>
<g><path style="opacity:0.004" fill="#fe8757" d="M 61.5,65.5 C 61.8333,65.5 62.1667,65.5 62.5,65.5C 62.3147,66.1701 61.9813,66.1701 61.5,65.5 Z"/></g>
<g><path style="opacity:0.008" fill="#fe8756" d="M 13.5,66.5 C 12.8333,67.1667 12.8333,67.1667 13.5,66.5 Z"/></g>
<g><path style="opacity:0.004" fill="#fe8757" d="M 57.5,66.5 C 58.2389,66.369 58.9056,66.5357 59.5,67C 58.5632,67.6917 57.8966,67.525 57.5,66.5 Z"/></g>
<g><path style="opacity:0.004" fill="#fe8757" d="M 61.5,66.5 C 60.8333,67.1667 60.8333,67.1667 61.5,66.5 Z"/></g>
</svg>
