<svg width="16" height="16" viewBox="0 0 16 16" fill="none" xmlns="http://www.w3.org/2000/svg">
<path fill-rule="evenodd" clip-rule="evenodd" d="M7.99961 9.63293L8 9.63333L12.7246 4.724C12.8777 4.57419 13.0716 4.49952 13.2631 4.5C13.453 4.50068 13.6406 4.57535 13.7837 4.724C14.0711 5.02267 14.0711 5.508 13.7837 5.82533L8.53814 11.276C8.38495 11.4258 8.19109 11.5005 7.99962 11.5C7.80965 11.4993 7.6221 11.4247 7.47904 11.276L2.21557 5.82533C1.92814 5.508 1.92814 5.02267 2.21557 4.724C2.35975 4.57418 2.55364 4.49952 2.74738 4.5C2.93961 4.50068 3.13161 4.57535 3.27467 4.724L7.99922 9.63333L7.99961 9.63293Z" fill="#FFFFFF"/>
</svg>
