<svg width="16" height="16" viewBox="0 0 16 16" fill="none" xmlns="http://www.w3.org/2000/svg">
<path d="M9.08983 7.99973L13.7742 3.31567C14.0753 3.01461 14.0753 2.52684 13.7742 2.22579C13.4732 1.92474 12.9854 1.92474 12.6844 2.22579L8 6.90986L3.31561 2.22579C3.01457 1.92474 2.52682 1.92474 2.22578 2.22579C1.92474 2.52684 1.92474 3.01461 2.22578 3.31567L6.91017 7.99973L2.22578 12.6843C1.92474 12.9854 1.92474 13.4732 2.22578 13.7742C2.52682 14.0753 3.01457 14.0753 3.31561 13.7742L8 9.08961L12.6844 13.7742C12.835 13.9249 13.0322 13.9999 13.2293 13.9999C13.4264 13.9999 13.6236 13.9246 13.7742 13.7742C14.0753 13.4732 14.0753 12.9854 13.7742 12.6843L9.08983 7.99973Z" fill="#20201D"/>
</svg>
