<svg width="20" height="20" viewBox="0 0 20 20" fill="none" xmlns="http://www.w3.org/2000/svg">
<path fill-rule="evenodd" clip-rule="evenodd" d="M7.18701 2.50182H16.3524C16.5052 2.49323 16.6583 2.51506 16.8014 2.56585C16.9446 2.61665 17.0746 2.69527 17.1829 2.79651C17.2912 2.89776 17.3752 3.01934 17.4296 3.15321C17.4839 3.28708 17.5072 3.4302 17.4981 3.57312V13.2148H16.3524V3.57312H7.18701V2.50182ZM14.061 4.64442C14.2139 4.63583 14.3669 4.65765 14.5101 4.70845C14.6533 4.75925 14.7833 4.83786 14.8916 4.93911C14.9998 5.04036 15.0839 5.16194 15.1382 5.2958C15.1925 5.42967 15.2159 5.57279 15.2067 5.71572V16.4287C15.2067 17.214 14.9008 17.5 14.061 17.5H4.89567C4.05589 17.5 3.75 17.214 3.75 16.4287V5.71572C3.75 4.93046 4.05589 4.64442 4.89567 4.64442H14.061ZM14.061 16.4287H4.89567V5.71572H14.061V16.4287Z" fill="#7A7A7A" stroke="#7A7A7A" stroke-width="0.3"/>
</svg>
