<svg width="20" height="20" viewBox="0 0 20 20" fill="none" xmlns="http://www.w3.org/2000/svg">
<path d="M16.7578 3L10.8984 7.37501L11.988 4.79667L16.7578 3Z" fill="#E17726" stroke="#E17726" stroke-width="0.25" stroke-linecap="round" stroke-linejoin="round"/>
<path d="M3.24219 3L9.04938 7.41584L8.01198 4.79667L3.24219 3Z" fill="#E27625" stroke="#E27625" stroke-width="0.25" stroke-linecap="round" stroke-linejoin="round"/>
<path d="M14.6488 13.1445L13.0898 15.5479L16.4281 16.4754L17.3844 13.1971L14.6488 13.1445Z" fill="#E27625" stroke="#E27625" stroke-width="0.25" stroke-linecap="round" stroke-linejoin="round"/>
<path d="M2.61914 13.1971L3.56961 16.4754L6.9021 15.5479L5.34886 13.1445L2.61914 13.1971Z" fill="#E27625" stroke="#E27625" stroke-width="0.25" stroke-linecap="round" stroke-linejoin="round"/>
<path d="M6.72415 9.08372L5.79688 10.4954L9.10036 10.6471L8.99026 7.05957L6.72415 9.08372Z" fill="#E27625" stroke="#E27625" stroke-width="0.25" stroke-linecap="round" stroke-linejoin="round"/>
<path d="M13.2746 9.08453L10.9738 7.01953L10.8984 10.6479L14.2019 10.4962L13.2746 9.08453Z" fill="#E27625" stroke="#E27625" stroke-width="0.25" stroke-linecap="round" stroke-linejoin="round"/>
<path d="M6.9043 15.5472L8.90376 14.5731L7.1825 13.2197L6.9043 15.5472Z" fill="#E27625" stroke="#E27625" stroke-width="0.25" stroke-linecap="round" stroke-linejoin="round"/>
<path d="M11.0957 14.5731L13.0894 15.5472L12.817 13.2197L11.0957 14.5731Z" fill="#E27625" stroke="#E27625" stroke-width="0.25" stroke-linecap="round" stroke-linejoin="round"/>
<path d="M13.0894 15.5474L11.0957 14.5732L11.258 15.8799L11.2406 16.4341L13.0894 15.5474Z" fill="#D5BFB2" stroke="#D5BFB2" stroke-width="0.25" stroke-linecap="round" stroke-linejoin="round"/>
<path d="M6.9043 15.5474L8.7589 16.4341L8.7473 15.8799L8.90376 14.5732L6.9043 15.5474Z" fill="#D5BFB2" stroke="#D5BFB2" stroke-width="0.25" stroke-linecap="round" stroke-linejoin="round"/>
<path d="M8.79427 12.3567L7.13672 11.8667L8.30742 11.3242L8.79427 12.3567Z" fill="#233447" stroke="#233447" stroke-width="0.25" stroke-linecap="round" stroke-linejoin="round"/>
<path d="M11.2051 12.3567L11.6919 11.3242L12.8684 11.8667L11.2051 12.3567Z" fill="#233447" stroke="#233447" stroke-width="0.25" stroke-linecap="round" stroke-linejoin="round"/>
<path d="M6.90477 15.5479L7.19457 13.1445L5.35156 13.1971L6.90477 15.5479Z" fill="#CC6228" stroke="#CC6228" stroke-width="0.25" stroke-linecap="round" stroke-linejoin="round"/>
<path d="M12.8047 13.1445L13.0887 15.5479L14.6477 13.1971L12.8047 13.1445Z" fill="#CC6228" stroke="#CC6228" stroke-width="0.25" stroke-linecap="round" stroke-linejoin="round"/>
<path d="M14.2019 10.4956L10.8984 10.6473L11.2056 12.3565L11.6924 11.3239L12.8689 11.8665L14.2019 10.4956Z" fill="#CC6228" stroke="#CC6228" stroke-width="0.25" stroke-linecap="round" stroke-linejoin="round"/>
<path d="M7.13565 11.8665L8.30636 11.3239L8.79321 12.3565L9.10036 10.6473L5.79688 10.4956L7.13565 11.8665Z" fill="#CC6228" stroke="#CC6228" stroke-width="0.25" stroke-linecap="round" stroke-linejoin="round"/>
<path d="M5.79883 10.4956L7.18399 13.2198L7.13759 11.8665L5.79883 10.4956Z" fill="#E27525" stroke="#E27525" stroke-width="0.25" stroke-linecap="round" stroke-linejoin="round"/>
<path d="M12.8686 11.8665L12.8164 13.2198L14.2016 10.4956L12.8686 11.8665Z" fill="#E27525" stroke="#E27525" stroke-width="0.25" stroke-linecap="round" stroke-linejoin="round"/>
<path d="M9.10212 10.6475L8.79492 12.3567L9.18322 14.375L9.27017 11.715L9.10212 10.6475Z" fill="#E27525" stroke="#E27525" stroke-width="0.25" stroke-linecap="round" stroke-linejoin="round"/>
<path d="M10.8986 10.6475L10.7363 11.7092L10.8175 14.375L11.2058 12.3567L10.8986 10.6475Z" fill="#E27525" stroke="#E27525" stroke-width="0.25" stroke-linecap="round" stroke-linejoin="round"/>
<path d="M11.2047 12.3562L10.8164 14.3745L11.0946 14.5729L12.8159 13.2195L12.8681 11.8662L11.2047 12.3562Z" fill="#F5841F" stroke="#F5841F" stroke-width="0.25" stroke-linecap="round" stroke-linejoin="round"/>
<path d="M7.13672 11.8662L7.18312 13.2195L8.90437 14.5729L9.18257 14.3745L8.79427 12.3562L7.13672 11.8662Z" fill="#F5841F" stroke="#F5841F" stroke-width="0.25" stroke-linecap="round" stroke-linejoin="round"/>
<path d="M11.2394 16.434L11.2568 15.8799L11.1061 15.7515H8.8922L8.7473 15.8799L8.7589 16.434L6.9043 15.5474L7.5534 16.084L8.869 16.9999H11.1235L12.4449 16.084L13.0882 15.5474L11.2394 16.434Z" fill="#C0AC9D" stroke="#C0AC9D" stroke-width="0.25" stroke-linecap="round" stroke-linejoin="round"/>
<path d="M11.0953 14.5733L10.8171 14.375H9.1827L8.90455 14.5733L8.74805 15.88L8.89295 15.7517H11.1069L11.2576 15.88L11.0953 14.5733Z" fill="#161616" stroke="#161616" stroke-width="0.25" stroke-linecap="round" stroke-linejoin="round"/>
<path d="M17.0072 7.66083L17.4998 5.24584L16.758 3L11.0957 7.22919L13.2748 9.08417L16.3523 9.98836L17.0304 9.1892L16.7348 8.97333L17.2042 8.5417L16.8449 8.26168L17.3144 7.90001L17.0072 7.66083Z" fill="#763E1A" stroke="#763E1A" stroke-width="0.25" stroke-linecap="round" stroke-linejoin="round"/>
<path d="M2.5 5.24584L2.99842 7.66083L2.67967 7.90001L3.1549 8.26168L2.79558 8.5417L3.26502 8.97333L2.96944 9.1892L3.64753 9.98836L6.72501 9.08417L8.90412 7.22919L3.24184 3L2.5 5.24584Z" fill="#763E1A" stroke="#763E1A" stroke-width="0.25" stroke-linecap="round" stroke-linejoin="round"/>
<path d="M16.3517 9.98813L13.2743 9.08398L14.2016 10.4957L12.8164 13.2198L14.6478 13.1965H17.3833L16.3517 9.98813Z" fill="#F5841F" stroke="#F5841F" stroke-width="0.25" stroke-linecap="round" stroke-linejoin="round"/>
<path d="M6.7224 9.08398L3.64496 9.98813L2.61914 13.1965H5.34886L7.18025 13.2198L5.79513 10.4957L6.7224 9.08398Z" fill="#F5841F" stroke="#F5841F" stroke-width="0.25" stroke-linecap="round" stroke-linejoin="round"/>
<path d="M10.8979 10.6477L11.095 7.22936L11.9875 4.79688H8.01172L8.90422 7.22936L9.10127 10.6477L9.17662 11.7211L9.18242 14.3752H10.8168L10.8226 11.7211L10.8979 10.6477Z" fill="#F5841F" stroke="#F5841F" stroke-width="0.25" stroke-linecap="round" stroke-linejoin="round"/>
</svg>
