<svg width="48" height="48" viewBox="0 0 48 48" fill="none" xmlns="http://www.w3.org/2000/svg">
<circle cx="24" cy="24" r="23.5" fill="#2F2F2F" stroke="url(#paint0_linear)"/>
<path fill-rule="evenodd" clip-rule="evenodd" d="M22.3215 13.7952V9.59998H21.4838V13.9888C20.6682 14.2233 19.9461 14.5749 19.3141 15.041C18.0742 15.9535 17.4573 17.133 17.4573 18.6046C17.4573 20.1172 18.1216 21.3277 19.4653 22.2606L19.4662 22.2613C19.9715 22.6146 20.6425 22.9593 21.4838 23.2937V32.7295C20.8099 32.5135 20.2075 32.2087 19.6796 31.8126C18.567 30.9778 17.9804 29.8575 17.9071 28.4805H16.8C16.8488 29.502 17.1494 30.4068 17.696 31.202C18.3028 32.0708 19.1884 32.7526 20.3683 33.2442C20.7292 33.3934 21.101 33.5202 21.4838 33.6245V36.1558C21.4838 37.3952 22.6089 38.4 23.9967 38.4C25.3845 38.4 26.5096 37.3952 26.5096 36.1558V33.7869C27.6164 33.5678 28.5535 33.1694 29.3291 32.5987L29.33 32.598C30.5767 31.6871 31.2 30.4859 31.2 28.9653C31.2 27.9918 30.9655 27.164 30.5097 26.4707C30.051 25.7732 29.3622 25.167 28.4284 24.6561L28.4262 24.6549C27.9224 24.3744 27.2844 24.0973 26.5096 23.8243V14.8411C27.2173 15.0662 27.8402 15.4077 28.3736 15.8688C29.3579 16.711 29.8751 17.8071 29.9419 19.1314H31.0628C31.0146 18.1516 30.7278 17.2624 30.2055 16.4586C29.6317 15.5756 28.8219 14.8863 27.7681 14.3888L27.767 14.3883C27.3695 14.199 26.9505 14.0453 26.5096 13.9274V9.59998H25.6719V13.7511C25.1989 13.6768 24.7032 13.6395 24.1843 13.6395C23.5214 13.6395 22.9008 13.6916 22.3215 13.7952ZM21.4838 14.9229C20.9835 15.0996 20.5318 15.3343 20.1308 15.6287C19.0978 16.3776 18.578 17.369 18.578 18.5766C18.578 19.6972 19.0469 20.6262 19.9808 21.3383C20.3824 21.6446 20.8845 21.9313 21.4838 22.1998V14.9229ZM22.3215 22.5401V14.69C22.8923 14.5701 23.514 14.5111 24.1843 14.5111C24.7097 14.5111 25.206 14.5524 25.6719 14.6357V23.5475C25.2246 23.4084 24.7407 23.2705 24.2199 23.134L24.2182 23.1336C23.5212 22.9474 22.8883 22.7498 22.3215 22.5401ZM22.3215 23.6038V32.9453C22.9365 33.0681 23.6014 33.1288 24.3142 33.1288C24.7905 33.1288 25.2433 33.1001 25.6719 33.0419V24.6188C25.197 24.4613 24.6805 24.3074 24.1233 24.1568C23.4656 23.9763 22.8653 23.7918 22.3215 23.6038ZM26.5096 24.917V32.883C27.2492 32.6992 27.9025 32.4111 28.4646 32.0143C29.539 31.2558 30.0794 30.2395 30.0794 28.9933C30.0794 27.7935 29.641 26.8158 28.741 26.0968C28.2273 25.681 27.4796 25.289 26.5096 24.917ZM25.6719 33.9149C25.2419 33.9625 24.7895 33.9865 24.3142 33.9865C23.6213 33.9865 22.9572 33.9287 22.3215 33.8137V36.1558C22.3215 36.9821 23.0715 37.6519 23.9967 37.6519C24.9219 37.6519 25.6719 36.9821 25.6719 36.1558V33.9149Z" fill="url(#paint1_linear)" stroke="url(#paint2_linear)" stroke-width="0.6"/>
<defs>
<linearGradient id="paint0_linear" x1="1.05256e-07" y1="24" x2="35.0407" y2="45.3097" gradientUnits="userSpaceOnUse">
<stop stop-color="#BBD8FF"/>
<stop offset="0.278603" stop-color="#BCFFE3"/>
<stop offset="0.640625" stop-color="#FFF4BA"/>
<stop offset="0.972274" stop-color="#FFC6F2"/>
</linearGradient>
<linearGradient id="paint1_linear" x1="16.9769" y1="56.1" x2="39.809" y2="52.9189" gradientUnits="userSpaceOnUse">
<stop stop-color="#DBB0FF"/>
<stop offset="0.292266" stop-color="#C2DCFF"/>
<stop offset="0.600346" stop-color="#B4FFE0"/>
<stop offset="0.747126" stop-color="#FEFBDA"/>
<stop offset="0.972274" stop-color="#FECBFF"/>
</linearGradient>
<linearGradient id="paint2_linear" x1="16.9769" y1="56.1" x2="39.809" y2="52.9189" gradientUnits="userSpaceOnUse">
<stop stop-color="#DBB0FF"/>
<stop offset="0.292266" stop-color="#C2DCFF"/>
<stop offset="0.600346" stop-color="#B4FFE0"/>
<stop offset="0.747126" stop-color="#FEFBDA"/>
<stop offset="0.972274" stop-color="#FECBFF"/>
</linearGradient>
</defs>
</svg>
