<svg width="8" height="8" viewBox="0 0 8 8" fill="none" xmlns="http://www.w3.org/2000/svg">
    <path d="M4.72655 3.99982L7.84948 0.877111C8.05017 0.676409 8.05017 0.351227 7.84948 0.150526C7.64879 -0.0501753 7.32362 -0.0501753 7.12293 0.150526L4 3.27324L0.877072 0.150526C0.67638 -0.0501753 0.351211 -0.0501753 0.150519 0.150526C-0.0501731 0.351227 -0.0501731 0.676409 0.150519 0.877111L3.27345 3.99982L0.150519 7.12289C-0.0501731 7.32359 -0.0501731 7.64877 0.150519 7.84947C0.351211 8.05018 0.67638 8.05018 0.877072 7.84947L4 4.72641L7.12293 7.84947C7.22336 7.94991 7.35479 7.99996 7.48621 7.99996C7.61763 7.99996 7.74905 7.94974 7.84948 7.84947C8.05017 7.64877 8.05017 7.32359 7.84948 7.12289L4.72655 3.99982Z" fill="#7A7A7A"/>
</svg>
