<svg width="21" height="16" viewBox="0 0 21 16" fill="none" xmlns="http://www.w3.org/2000/svg">
    <path d="M17.6196 1.36043C16.2649 0.748237 14.8425 0.272086 13.3523 0C13.1491 0.340108 12.9459 0.748237 12.8105 1.08835C11.1848 0.88428 9.62692 0.88428 8.06902 1.08835C7.86582 0.748237 7.66261 0.340108 7.45941 0C5.96924 0.272086 4.54681 0.680216 3.19211 1.36043C0.482711 5.3737 -0.262372 9.31896 0.0763022 13.1962C1.90514 14.4886 3.59852 15.3049 5.35962 15.849C5.76603 15.3049 6.17244 14.6927 6.51112 14.0124C5.9015 13.8084 5.29189 13.4683 4.75001 13.1282C4.88548 12.9921 5.02095 12.9241 5.15642 12.7881C8.6109 14.3526 12.2686 14.3526 15.6553 12.7881C15.7908 12.9241 15.9263 12.9921 16.0617 13.1282C15.5199 13.4683 14.9102 13.7404 14.3006 14.0124C14.6393 14.6246 14.978 15.2368 15.4521 15.849C17.1455 15.3049 18.9066 14.4886 20.7354 13.1962C21.1419 8.70676 19.9904 4.76151 17.6196 1.36043ZM6.98526 10.7474C5.96924 10.7474 5.08868 9.79511 5.08868 8.63874C5.08868 7.48237 5.9015 6.53007 6.98526 6.53007C8.00129 6.53007 8.88184 7.48237 8.88184 8.63874C8.8141 9.86313 8.00129 10.7474 6.98526 10.7474ZM13.8265 10.7474C12.8105 10.7474 11.9299 9.79511 11.9299 8.63874C11.9299 7.48237 12.7427 6.53007 13.8265 6.53007C14.8425 6.53007 15.7231 7.48237 15.7231 8.63874C15.7231 9.86313 14.9102 10.7474 13.8265 10.7474Z"
          fill="#7E7A8A"/>
</svg>