<svg width="24" height="24" viewBox="0 0 24 24" fill="none" xmlns="http://www.w3.org/2000/svg">
    <path fill-rule="evenodd" clip-rule="evenodd" d="M12 0.00407275C9.15072 0.00310098 6.39413 1.04224 4.22377 2.93545C2.05341 4.82866 0.610998 7.45232 0.154791 10.3367C-0.301417 13.221 0.258366 16.1777 1.73392 18.6775C3.20947 21.1772 5.50443 23.0566 8.20792 23.9793C8.80385 24.0934 9.02633 23.7125 9.02633 23.3886C9.02633 23.0647 9.0164 22.1255 9.01044 21.0968C5.67326 21.8424 4.97006 19.6463 4.97006 19.6463C4.4238 18.2203 3.63718 17.8455 3.63718 17.8455C2.54862 17.0815 3.7206 17.0978 3.7206 17.0978C4.92437 17.1854 5.55804 18.3649 5.55804 18.3649C6.62872 20.2473 8.36486 19.7034 9.05017 19.3835C9.15744 18.589 9.46732 18.0471 9.81097 17.7395C7.14718 17.4279 4.34633 16.3726 4.34633 11.6586C4.32847 10.4365 4.77105 9.25432 5.58188 8.35845C5.45673 8.04676 5.04555 6.79595 5.69709 5.099C5.69709 5.099 6.70421 4.76898 8.99653 6.36204C10.9631 5.80793 13.0389 5.80793 15.0055 6.36204C17.2938 4.76898 18.3009 5.099 18.3009 5.099C18.9525 6.79391 18.5433 8.04472 18.4181 8.35845C19.2282 9.25464 19.6701 10.4367 19.6517 11.6586C19.6517 16.3848 16.8469 17.4258 14.1751 17.7294C14.6062 18.1103 14.9896 18.86 14.9896 20.0069C14.9896 21.6529 14.9757 22.9791 14.9757 23.3845C14.9757 23.7104 15.1902 24.0955 15.798 23.9732C18.5005 23.0492 20.7942 21.1691 22.2685 18.6692C23.7428 16.1694 24.3016 13.2131 23.8447 10.3294C23.3878 7.44574 21.9452 4.8229 19.775 2.93034C17.6048 1.03778 14.8487 -0.000969882 12 6.79522e-07V0.00407275Z" fill="#7E7A8A"></path>
</svg>